<mxfile host="app.diagrams.net" modified="2020-11-30T10:01:14.042Z" agent="5.0 (X11; Linux x86_64) AppleWebKit/537.36 (KHTML, like Gecko) Chrome/85.0.4183.121 Safari/537.36" etag="JLbGzRpPr8ZCnjlEtKlo" version="13.10.4" type="github">
  <diagram id="qb547_STKqiufdsUS5lh" name="Page-1">
    <mxGraphModel dx="1414" dy="793" grid="1" gridSize="10" guides="1" tooltips="1" connect="1" arrows="1" fold="1" page="1" pageScale="1" pageWidth="1169" pageHeight="827" math="0" shadow="0">
      <root>
        <mxCell id="0" />
        <mxCell id="1" parent="0" />
        <mxCell id="NbTBynIIwrVRqEcGo6Mi-1" value="" style="shape=parallelogram;perimeter=parallelogramPerimeter;whiteSpace=wrap;html=1;fixedSize=1;size=170;" vertex="1" parent="1">
          <mxGeometry x="290" y="210" width="480" height="230" as="geometry" />
        </mxCell>
      </root>
    </mxGraphModel>
  </diagram>
</mxfile>
